PathFileType	4	(X/Y/Z)	Patient4_TMGait_0pt8_01_right_13.trc.trc
DataRate	CameraRate	NumFrames	NumMarkers	Units	OrigDataRate	OrigDataStartFrame	OrigNumFrames
89.743589743590	89.743589743590	4	33	mm	89.743589743590	18	       141
Frame#	Time	Sacral			L.Shoulder			Chest			R.Shoulder			Neck			R.ASIS			L.ASIS			R.Thigh.Superior			R.Thigh.Lateral			R.Thigh.Inferior			R.Patella			L.Thigh.Superior			L.Thigh.Lateral			L.Thigh.Inferior			L.Patella			L.Shank.Superior			L.Shank.Lateral			L.Shank.Inferior			R.Shank.Superior			R.Shank.Lateral			R.Shank.Inferior			R.Heel			R.Midfoot.Superior			R.Midfoot.Lateral			R.Toe			L.Heel			L.Midfoot.Lateral			L.Midfoot.Superior			L.Toe			L.Elbow			L.Wrist			R.Elbow			R.Wrist			
		X1	Y1	Z1	X2	Y2	Z2	X3	Y3	Z3	X4	Y4	Z4	X5	Y5	Z5	X6	Y6	Z6	X7	Y7	Z7	X8	Y8	Z8	X9	Y9	Z9	X10	Y10	Z10	X11	Y11	Z11	X12	Y12	Z12	X13	Y13	Z13	X14	Y14	Z14	X15	Y15	Z15	X16	Y16	Z16	X17	Y17	Z17	X18	Y18	Z18	X19	Y19	Z19	X20	Y20	Z20	X21	Y21	Z21	X22	Y22	Z22	X23	Y23	Z23	X24	Y24	Z24	X25	Y25	Z25	X26	Y26	Z26	X27	Y27	Z27	X28	Y28	Z28	X29	Y29	Z29	X30	Y30	Z30	X31	Y31	Z31	X32	Y32	Z32	X33	Y33	Z33	

18	14.539428571429	870.945187732343	991.312579817421	435.694857490150	1053.144818224055	1428.200944521529	269.882517205750	1142.114468072818	1356.413405893668	438.090278007207	1042.091686627462	1424.581324449472	605.482946160815	1026.953088563981	1485.676214571319	424.426195370755	1094.928542547528	935.160581781785	564.796072764436	1092.255765353430	957.985803521907	288.119897263365	1175.835606636770	769.125886061234	535.632606176911	1142.070730660343	644.659929916070	613.387977653492	1233.792592163811	612.983065431716	534.166420955797	1273.022053648596	532.200114085578	553.506342802930	1087.238812850542	727.222764132916	312.960281151045	963.634214013319	635.924047786890	255.692518672460	1023.067565706445	540.457263032385	317.405144174725	1006.466429288607	475.052324459766	327.612836539200	971.770093195976	409.628920009099	322.253339615685	865.218951780344	306.367214023720	279.398828014610	908.149588571519	190.740154635037	350.536777063093	1261.301697954768	443.276009055078	562.189900260487	1212.863000954597	326.093845597763	623.227201900720	1288.594099884718	244.516452043628	573.178365966240	1208.618983511438	50.767735567703	540.878079603537	1364.779780324872	136.202493541023	587.552963193086	1289.484673048281	55.534528481857	618.345935674530	1489.283994571988	108.208976066030	619.943739993007	771.581127197401	41.569580736515	408.953339023211	837.901155420129	35.840749942200	322.495895521540	924.289572960285	95.771829919486	341.016244647738	1048.760434066608	41.618181811504	302.097715594803	1162.668120228527	1118.177474156257	116.573489480112	1411.300924662883	1052.099866588121	155.875923581702	900.171881896673	1105.379487200866	700.384555653659	868.338863370475	846.392722659459	712.831949913991	
19	14.550571428571	872.857615000750	989.425866322267	437.621043707964	1053.175540319803	1426.478089727160	271.197763630350	1143.105844259956	1354.882068504149	438.980306020883	1043.596104601666	1422.974503785921	606.685906649403	1027.533432469841	1483.797867474621	425.657899315160	1097.569029153440	932.676520981726	565.631992715227	1092.871735941171	956.281430947320	289.174009778229	1176.742199244405	765.347001241434	536.305582435627	1141.443109044784	640.648367073670	613.443133401906	1233.184274831201	609.017018969502	534.178322815688	1271.582543097119	529.123638131145	552.139151446057	1086.509042620841	725.395747566237	313.143140788972	961.560821554087	635.300274993717	256.160526744415	1020.086248364888	539.130098649626	317.696212339169	1002.745274861569	473.563570896461	327.793377602172	967.112792484897	408.616417298062	322.389047779705	859.078121463066	306.814745898422	279.606884718971	900.592048350476	190.487270671160	350.423201976055	1261.590780315353	440.325192037547	561.019710951809	1215.174408349877	322.093444407632	621.602469016449	1292.546778302077	242.060873575017	571.357689030797	1216.141395160609	47.201040020640	538.901566021831	1370.956016210248	134.647094606618	585.026803708789	1296.839323763378	53.412301815530	616.338783239209	1495.928214555569	108.778800161874	617.848606443624	762.659710554629	42.170731029150	408.713135730280	829.046144800438	36.049183186061	322.408999441219	915.548809034276	95.831383769553	340.860691464674	1039.866369596395	41.274154953323	302.024994399840	1165.496040361273	1118.592902963026	116.891820633410	1415.861661148993	1063.138467344932	158.013039556883	896.221540142443	1107.413661484868	701.274775227968	856.124846512948	849.887715509862	713.788751561045	
20	14.561714285714	874.902488924218	987.568797424934	439.861936951560	1053.124350202543	1424.758158354431	272.661827115705	1144.141668273202	1353.418621093338	439.970314997347	1045.222399312552	1421.420413698064	608.041073776721	1028.140619047170	1481.931817088296	427.071569319848	1100.462255387035	930.201328747535	566.520516312061	1093.560250155195	954.547298511524	290.292815752082	1178.280175756921	761.898995794415	536.912969686919	1141.530261834718	636.858554161901	613.222358087125	1233.248924787847	605.375373596540	533.936638367737	1270.650697444397	525.909452282974	550.568156832488	1086.113564238001	723.591332779721	313.487308758385	959.939104555313	634.596852020600	256.804924223791	1017.671292690286	537.740177880334	318.108899313087	999.619551891227	471.923875761948	328.098610366467	962.950623774385	407.479548505139	322.632820638329	853.304924479386	307.309305351883	279.929566332532	893.198329069422	190.217223667974	350.361351666236	1261.701487212295	437.045243083884	559.615381513452	1216.277832765507	318.252822036900	619.662945735494	1294.457470093773	239.143643922352	569.226578534941	1219.745071620586	44.407564669542	536.607646350329	1373.943705085374	132.091820036692	582.152064984538	1300.240789538355	51.232373547832	614.050035077991	1499.048156543380	107.044290890533	615.440850397493	753.744849353009	42.922543541347	408.445388511960	820.207054280617	36.324332435857	322.300514064407	906.856431951458	95.931154063817	340.680512564038	1030.994677180524	40.914360097055	301.932031175333	1167.719445048420	1118.756257942346	117.413667806402	1419.251724030132	1073.359798294546	160.139189062271	892.718237724785	1109.487753543447	702.397620485010	845.771103944545	853.390236567583	714.788861198206	
21	14.572857142857	877.069036149026	985.779758884397	442.399253534150	1053.031787105596	1423.075781775250	274.269997657432	1145.234075484634	1352.048411649077	441.065621786336	1046.974385971290	1419.940826793328	609.552080199337	1028.793526188053	1480.120828541430	428.668922744799	1103.581146550384	927.798306547260	567.455946758191	1094.362783740211	952.835895526512	291.461549554892	1180.460454559650	758.841557585852	537.420547360213	1142.344567636887	633.385632761910	612.733401807899	1233.986841968917	602.130789422163	533.433583179250	1270.269691576675	522.644189820303	548.810567940953	1086.043050694467	721.830049576062	313.954959066501	958.752195226856	633.837630763869	257.633559398338	1015.841771774752	536.302896008383	318.612085227029	997.130033934008	470.139728654292	328.480315092140	959.291500588994	406.235743032460	322.964708591882	847.898932935582	307.884623216717	280.369551969874	885.981620294538	189.957954897354	350.330131470020	1261.727934871650	433.539964398346	558.013969149698	1216.401921054845	314.617967131098	617.557267999644	1294.580445425597	235.817684813593	566.893890761685	1219.738703438666	42.321817799510	534.203952913135	1374.086072829903	128.600464124276	579.077436622831	1300.072950441179	48.970621614008	611.655944225720	1499.059771304621	103.100942471636	612.777438265379	744.840625692002	43.870230974447	408.148113946959	811.383987853517	36.678557258051	322.167507185298	898.232177972765	96.072180018229	340.457983551584	1022.150087667469	40.545343274053	301.818489212883	1169.292770990359	1118.639247522166	118.132800911004	1421.518141472525	1082.671991471417	162.227609730826	889.798364180336	1111.496192175463	703.761414276803	837.268507785146	856.701067208490	715.895827793063	
